<!--?xml version="1.0" standalone="no"?-->
              <svg id="sw-js-blob-svg" viewBox="0 0 100 100" xmlns="http://www.w3.org/2000/svg" version="1.1">
                    <defs> 
                        <linearGradient id="sw-gradient" x1="0" x2="1" y1="1" y2="0">
                            <stop id="stop1" stop-color="rgba(237, 225, 225, 0.68)" offset="0%"></stop>
                            <stop id="stop2" stop-color="rgba(73.848, 171.968, 126.179, 1)" offset="100%"></stop>
                        </linearGradient>
                    </defs>
                <path fill="url(#sw-gradient)" d="M20.6,-34C27.8,-31.6,35.2,-28.1,38.9,-22.3C42.5,-16.4,42.2,-8.2,40.6,-1C38.9,6.3,35.8,12.6,32.8,19.6C29.9,26.5,27,34.2,21.5,37.4C16.1,40.7,8,39.7,0.3,39.1C-7.4,38.6,-14.8,38.5,-20.8,35.5C-26.9,32.6,-31.6,26.8,-34.2,20.4C-36.7,14,-37.1,7,-37.6,-0.3C-38.2,-7.6,-38.8,-15.2,-36.7,-22.4C-34.6,-29.5,-29.7,-36.3,-23.1,-39C-16.6,-41.7,-8.3,-40.3,-0.8,-39C6.8,-37.7,13.5,-36.4,20.6,-34Z" width="100%" height="100%" transform="translate(50 50)" stroke-width="0" style="transition: all 0.3s ease 0s;" stroke="url(#sw-gradient)"></path>
              </svg>