<!--?xml version="1.0" standalone="no"?-->
              <svg id="sw-js-blob-svg" viewBox="0 0 100 100" xmlns="http://www.w3.org/2000/svg" version="1.1">
                    <defs> 
                        <linearGradient id="sw-gradient" x1="0" x2="1" y1="1" y2="0">
                            <stop id="stop1" stop-color="rgba(145, 190, 169, 1)" offset="0%"></stop>
                            <stop id="stop2" stop-color="rgba(145, 190, 169, 1)" offset="100%"></stop>
                        </linearGradient>
                    </defs>
                <path fill="url(#sw-gradient)" d="M21.6,-37.4C27.2,-34.1,30.6,-26.9,34,-20C37.3,-13.1,40.7,-6.5,42.1,0.8C43.5,8.1,42.9,16.3,39.1,22.5C35.4,28.7,28.4,32.9,21.4,35.9C14.3,39,7.1,40.8,0.3,40.3C-6.6,39.8,-13.2,37,-19.4,33.5C-25.7,30,-31.7,25.9,-36.6,20.2C-41.5,14.5,-45.4,7.3,-46.1,-0.4C-46.9,-8.1,-44.6,-16.3,-40.3,-23.1C-36,-29.8,-29.8,-35.3,-22.7,-37.8C-15.7,-40.3,-7.8,-39.9,0.1,-40C8,-40.1,15.9,-40.7,21.6,-37.4Z" width="100%" height="100%" transform="translate(50 50)" stroke-width="0" style="transition: all 0.3s ease 0s;" stroke="url(#sw-gradient)"></path>
              </svg>