<!--?xml version="1.0" standalone="no"?-->
              <svg id="sw-js-blob-svg" viewBox="0 0 100 100" xmlns="http://www.w3.org/2000/svg" version="1.1">
                    <defs> 
                        <linearGradient id="sw-gradient" x1="0" x2="1" y1="1" y2="0">
                            <stop id="stop1" stop-color="rgba(210, 82, 7, 1)" offset="0%"></stop>
                            <stop id="stop2" stop-color="rgba(210, 82, 7, 1)" offset="100%"></stop>
                        </linearGradient>
                    </defs>
                <path fill="url(#sw-gradient)" d="M21.9,-38.1C28,-34.4,32.1,-27.7,34.8,-20.8C37.5,-14,38.7,-7,39.8,0.6C40.9,8.2,41.8,16.4,38.9,22.9C36,29.5,29.3,34.3,22.2,38.2C15.1,42.1,7.5,45.1,0.2,44.8C-7.2,44.5,-14.3,40.8,-19.8,36C-25.2,31.1,-28.9,25,-33,18.8C-37.2,12.6,-41.7,6.3,-43.3,-0.9C-44.9,-8.1,-43.5,-16.2,-39.9,-23.4C-36.3,-30.5,-30.6,-36.7,-23.5,-39.8C-16.5,-42.9,-8.3,-42.8,-0.2,-42.5C7.9,-42.2,15.8,-41.7,21.9,-38.1Z" width="100%" height="100%" transform="translate(50 50)" stroke-width="0" style="transition: all 0.3s ease 0s;" stroke="url(#sw-gradient)"></path>
              </svg>